<svg width="390" height="462" viewBox="0 0 390 462" fill="none" xmlns="http://www.w3.org/2000/svg">
<path d="M327.065 228.465L328.932 226.41C344.648 209.064 349.97 184.763 342.01 163.314C340.987 160.548 339.757 157.864 338.331 155.283C328.054 136.681 307.607 124.006 285.932 122.781C273.18 122.052 259.625 124.939 248.1 119.68C233.11 112.873 227.425 95.2703 223.249 79.546C219.072 63.8218 213.332 46.2229 198.317 39.4768C188.91 35.2495 177.687 36.4208 167.854 39.9882C141.834 49.457 123.637 74.8475 118.829 101.581C114.022 128.315 121.142 155.9 133.905 179.661C151.79 212.947 181.796 240.636 218.596 251.542C255.397 262.448 298.777 254.821 327.065 228.465Z" fill="#0158A3"/>
<path d="M270.417 363.152L173.173 363.093C167.557 363.09 162.171 360.864 158.201 356.906C154.23 352.948 152 347.582 152 341.986L152.046 99.1008C152.047 96.3284 152.596 93.5833 153.662 91.0223C154.728 88.4614 156.29 86.1347 158.259 84.1752C160.227 82.2158 162.564 80.6619 165.136 79.6023C167.707 78.5427 170.463 77.9983 173.246 78L270.489 78.0525C276.106 78.056 281.491 80.2813 285.462 84.2393C289.432 88.1974 291.662 93.5641 291.662 99.1598L291.616 342.052C291.615 344.824 291.066 347.569 290 350.13C288.935 352.691 287.373 355.018 285.404 356.977C283.435 358.937 281.098 360.491 278.527 361.55C275.955 362.61 273.199 363.154 270.417 363.152Z" fill="#263238"/>
<path d="M270.378 86.6437H251.536C250.921 86.6565 250.315 86.79 249.752 87.0365C249.189 87.283 248.68 87.6377 248.255 88.0802C247.83 88.5228 247.496 89.0446 247.274 89.6157C247.051 90.1869 246.944 90.7961 246.958 91.4087V94.7821C246.984 96.0187 246.517 97.2152 245.658 98.1087C244.8 99.0021 243.62 99.5195 242.379 99.547H205.632C205.014 99.5368 204.405 99.4051 203.838 99.1595C203.272 98.9139 202.76 98.5593 202.331 98.1159C201.903 97.6725 201.566 97.1492 201.341 96.576C201.117 96.0028 201.008 95.3909 201.021 94.7756V91.3758C201.035 90.763 200.927 90.1534 200.705 89.5819C200.482 89.0104 200.149 88.4882 199.724 88.0451C199.298 87.602 198.79 87.2467 198.227 86.9995C197.664 86.7523 197.057 86.618 196.442 86.6044H173.338C169.409 86.6026 165.639 88.1534 162.855 90.9168C160.072 93.6801 158.502 97.4305 158.489 101.345L158.443 338.422C158.443 342.341 160.006 346.099 162.786 348.871C165.567 351.643 169.339 353.201 173.273 353.202L270.325 353.262C272.274 353.263 274.204 352.882 276.005 352.14C277.806 351.398 279.443 350.309 280.822 348.937C282.2 347.564 283.293 345.934 284.039 344.14C284.785 342.346 285.168 340.423 285.167 338.481L285.213 101.411C285.21 97.4933 283.645 93.7372 280.863 90.9682C278.082 88.1992 274.31 86.6437 270.378 86.6437Z" fill="white"/>
<path d="M212.819 335.16C212.823 335.527 212.718 335.888 212.516 336.195C212.315 336.503 212.026 336.744 211.687 336.888C211.348 337.032 210.973 337.073 210.611 337.005C210.248 336.937 209.914 336.764 209.651 336.507C209.387 336.25 209.206 335.921 209.131 335.561C209.055 335.202 209.088 334.828 209.225 334.487C209.363 334.146 209.599 333.854 209.903 333.646C210.207 333.439 210.567 333.326 210.935 333.322C211.429 333.319 211.905 333.51 212.258 333.854C212.611 334.199 212.813 334.668 212.819 335.16Z" fill="#263238"/>
<path d="M223.254 335.075C223.258 335.442 223.152 335.803 222.95 336.111C222.748 336.418 222.459 336.659 222.12 336.803C221.78 336.947 221.406 336.988 221.043 336.919C220.68 336.851 220.346 336.677 220.083 336.419C219.82 336.162 219.639 335.832 219.564 335.472C219.489 335.112 219.523 334.738 219.662 334.397C219.8 334.057 220.037 333.764 220.342 333.558C220.648 333.351 221.007 333.24 221.376 333.237C221.87 333.234 222.344 333.425 222.696 333.77C223.048 334.114 223.249 334.583 223.254 335.075Z" fill="#263238"/>
<path d="M233.695 334.996C233.699 335.364 233.594 335.724 233.392 336.032C233.19 336.34 232.901 336.581 232.561 336.725C232.222 336.869 231.847 336.909 231.484 336.841C231.122 336.772 230.788 336.598 230.525 336.341C230.261 336.083 230.081 335.753 230.006 335.394C229.931 335.034 229.965 334.66 230.103 334.319C230.242 333.978 230.478 333.686 230.784 333.479C231.089 333.273 231.449 333.161 231.818 333.158C232.311 333.155 232.786 333.346 233.138 333.691C233.49 334.035 233.69 334.505 233.695 334.996Z" fill="#263238"/>
<path d="M274.428 306.384C274.428 306.482 250.053 306.555 219.946 306.555C189.84 306.555 165.465 306.482 165.465 306.384C165.465 306.286 189.84 306.213 219.946 306.213C250.053 306.213 274.428 306.292 274.428 306.384Z" fill="#E0E0E0"/>
<path d="M249.783 313.892C249.783 313.984 236.232 314.063 219.519 314.063C202.805 314.063 189.254 313.984 189.254 313.892C189.254 313.8 202.799 313.722 219.519 313.722C236.238 313.722 249.783 313.794 249.783 313.892Z" fill="#E0E0E0"/>
<path d="M271.424 271.159H174.445C170.337 271.159 167.007 274.477 167.007 278.569V283.268C167.007 287.361 170.337 290.678 174.445 290.678H271.424C275.532 290.678 278.862 287.361 278.862 283.268V278.569C278.862 274.477 275.532 271.159 271.424 271.159Z" fill="#0158A3"/>
<path d="M208.814 276.994H211.825C213.992 276.994 215.481 278.306 215.481 280.275C215.481 282.244 213.992 283.557 211.825 283.557H208.814V276.994ZM211.746 282.343C212.291 282.343 212.814 282.127 213.199 281.743C213.585 281.359 213.801 280.838 213.801 280.295C213.801 279.752 213.585 279.231 213.199 278.847C212.814 278.463 212.291 278.247 211.746 278.247H210.343V282.343H211.746Z" fill="white"/>
<path d="M216.153 281.063C216.118 280.504 216.253 279.948 216.54 279.466C216.827 278.984 217.252 278.6 217.761 278.362C218.27 278.124 218.839 278.043 219.394 278.131C219.949 278.219 220.465 278.471 220.875 278.854C221.285 279.237 221.57 279.735 221.692 280.281C221.815 280.828 221.771 281.398 221.564 281.919C221.358 282.44 220.999 282.887 220.535 283.203C220.07 283.518 219.521 283.687 218.959 283.688C218.599 283.712 218.238 283.661 217.898 283.54C217.558 283.418 217.247 283.229 216.984 282.982C216.721 282.736 216.511 282.439 216.368 282.109C216.225 281.779 216.152 281.423 216.153 281.063ZM220.257 281.063C220.257 280.715 220.118 280.381 219.871 280.135C219.624 279.889 219.289 279.75 218.939 279.75C218.59 279.75 218.255 279.889 218.008 280.135C217.761 280.381 217.622 280.715 217.622 281.063C217.622 281.411 217.761 281.745 218.008 281.991C218.255 282.237 218.59 282.376 218.939 282.376C219.289 282.376 219.624 282.237 219.871 281.991C220.118 281.745 220.257 281.411 220.257 281.063Z" fill="white"/>
<path d="M227.946 280.695V283.596H226.47V280.919C226.47 280.098 226.088 279.724 225.436 279.724C224.783 279.724 224.217 280.157 224.217 281.089V283.596H222.741V278.523H224.151V279.12C224.371 278.9 224.634 278.727 224.925 278.614C225.215 278.501 225.526 278.45 225.837 278.464C227.036 278.451 227.946 279.146 227.946 280.695Z" fill="white"/>
<path d="M234.301 281.477H230.447C230.528 281.792 230.719 282.067 230.986 282.254C231.253 282.441 231.579 282.526 231.903 282.494C232.139 282.504 232.374 282.466 232.594 282.381C232.814 282.296 233.014 282.167 233.181 282.002L233.972 282.855C233.703 283.136 233.376 283.356 233.012 283.497C232.649 283.639 232.259 283.7 231.87 283.675C230.105 283.675 228.958 282.573 228.958 281.05C228.952 280.696 229.018 280.345 229.154 280.017C229.289 279.69 229.491 279.394 229.746 279.148C230.001 278.902 230.304 278.71 230.637 278.586C230.97 278.461 231.324 278.407 231.679 278.425C232.03 278.408 232.38 278.464 232.707 278.59C233.035 278.716 233.332 278.909 233.58 279.156C233.828 279.403 234.022 279.699 234.148 280.026C234.275 280.352 234.331 280.701 234.314 281.05C234.328 281.194 234.308 281.352 234.301 281.477ZM230.428 280.636H232.938C232.889 280.34 232.736 280.07 232.506 279.875C232.276 279.68 231.984 279.573 231.683 279.573C231.381 279.573 231.089 279.68 230.859 279.875C230.629 280.07 230.476 280.34 230.428 280.636Z" fill="white"/>
<path d="M181.59 253.035V149.268H263.465V253.035H181.59Z" fill="#FAFAFA" stroke="#E8E9ED" stroke-width="0.5"/>
<mask id="path-15-inside-1_2894_49084" fill="white">
<path d="M256.639 202.255C256.639 202.32 255.726 201.745 253.989 201.138C251.534 200.289 248.938 200.066 246.394 200.485C244.649 200.784 242.958 201.388 241.384 202.274C239.594 203.337 237.938 204.654 236.456 206.192C234.842 207.772 233.235 209.568 231.386 211.227C229.5 213.015 227.292 214.337 224.91 215.105C223.679 215.466 222.396 215.552 221.136 215.36C219.921 215.156 218.74 214.753 217.632 214.165C215.607 212.996 213.641 211.703 211.745 210.293C210.059 209.045 208.196 208.12 206.234 207.557C204.519 207.092 202.747 206.94 200.988 207.106C198.426 207.352 195.948 208.246 193.746 209.718C192.191 210.77 191.461 211.56 191.391 211.507C191.543 211.292 191.719 211.099 191.915 210.933C192.44 210.408 193.003 209.932 193.599 209.509C195.46 208.175 197.545 207.269 199.729 206.845C201.912 206.421 204.15 206.488 206.31 207.041C208.327 207.603 210.245 208.534 211.986 209.797C213.864 211.182 215.81 212.45 217.815 213.597C219.945 214.808 222.396 215.128 224.721 214.498C227.045 213.769 229.203 212.506 231.056 210.789C232.882 209.163 234.489 207.381 236.132 205.794C237.654 204.235 239.355 202.905 241.189 201.837C243.175 200.744 245.337 200.099 247.55 199.94C249.762 199.781 251.981 200.11 254.078 200.91C254.747 201.16 255.397 201.47 256.021 201.837C256.238 201.954 256.445 202.094 256.639 202.255Z"/>
</mask>
<path d="M256.639 202.255C256.639 202.32 255.726 201.745 253.989 201.138C251.534 200.289 248.938 200.066 246.394 200.485C244.649 200.784 242.958 201.388 241.384 202.274C239.594 203.337 237.938 204.654 236.456 206.192C234.842 207.772 233.235 209.568 231.386 211.227C229.5 213.015 227.292 214.337 224.91 215.105C223.679 215.466 222.396 215.552 221.136 215.36C219.921 215.156 218.74 214.753 217.632 214.165C215.607 212.996 213.641 211.703 211.745 210.293C210.059 209.045 208.196 208.12 206.234 207.557C204.519 207.092 202.747 206.94 200.988 207.106C198.426 207.352 195.948 208.246 193.746 209.718C192.191 210.77 191.461 211.56 191.391 211.507C191.543 211.292 191.719 211.099 191.915 210.933C192.44 210.408 193.003 209.932 193.599 209.509C195.46 208.175 197.545 207.269 199.729 206.845C201.912 206.421 204.15 206.488 206.31 207.041C208.327 207.603 210.245 208.534 211.986 209.797C213.864 211.182 215.81 212.45 217.815 213.597C219.945 214.808 222.396 215.128 224.721 214.498C227.045 213.769 229.203 212.506 231.056 210.789C232.882 209.163 234.489 207.381 236.132 205.794C237.654 204.235 239.355 202.905 241.189 201.837C243.175 200.744 245.337 200.099 247.55 199.94C249.762 199.781 251.981 200.11 254.078 200.91C254.747 201.16 255.397 201.47 256.021 201.837C256.238 201.954 256.445 202.094 256.639 202.255Z" fill="#0158A3"/>
<path d="M256.639 202.255H257.639V201.785L257.278 201.486L256.639 202.255ZM253.989 201.138L254.319 200.194L254.316 200.193L253.989 201.138ZM246.394 200.485L246.231 199.499L246.225 199.5L246.394 200.485ZM241.384 202.274L240.893 201.403L240.883 201.409L240.873 201.415L241.384 202.274ZM236.456 206.192L237.155 206.907L237.166 206.896L237.176 206.886L236.456 206.192ZM231.386 211.227L230.718 210.482L230.708 210.491L230.698 210.501L231.386 211.227ZM224.91 215.105L225.191 216.065L225.204 216.061L225.217 216.057L224.91 215.105ZM221.136 215.36L220.97 216.346L220.977 216.347L220.985 216.348L221.136 215.36ZM217.632 214.165L217.133 215.031L217.148 215.04L217.164 215.048L217.632 214.165ZM211.745 210.293L212.341 209.49L212.34 209.489L211.745 210.293ZM206.234 207.557L206.51 206.596L206.502 206.594L206.495 206.592L206.234 207.557ZM200.988 207.106L200.894 206.111L200.892 206.111L200.988 207.106ZM193.746 209.718L193.19 208.887L193.185 208.89L193.746 209.718ZM191.391 211.507L190.574 210.93L190.008 211.729L190.796 212.311L191.391 211.507ZM191.915 210.933L192.563 211.694L192.593 211.669L192.621 211.64L191.915 210.933ZM193.599 209.509L194.177 210.325L194.181 210.322L193.599 209.509ZM206.31 207.041L206.579 206.078L206.569 206.075L206.558 206.072L206.31 207.041ZM211.986 209.797L212.579 208.992L212.573 208.987L211.986 209.797ZM217.815 213.597L217.318 214.465L217.32 214.466L217.815 213.597ZM224.721 214.498L224.983 215.463L225.002 215.458L225.02 215.452L224.721 214.498ZM231.056 210.789L230.391 210.042L230.384 210.049L230.377 210.055L231.056 210.789ZM236.132 205.794L236.826 206.513L236.837 206.503L236.847 206.493L236.132 205.794ZM241.189 201.837L240.707 200.961L240.697 200.967L240.686 200.973L241.189 201.837ZM254.078 200.91L253.721 201.844L253.728 201.846L254.078 200.91ZM256.021 201.837L255.513 202.699L255.53 202.708L255.547 202.717L256.021 201.837ZM255.639 202.255C255.639 202.108 255.672 201.916 255.791 201.726C255.911 201.534 256.076 201.415 256.222 201.349C256.471 201.236 256.69 201.261 256.736 201.265C256.813 201.274 256.871 201.29 256.893 201.296C256.92 201.304 256.94 201.311 256.948 201.314C256.967 201.322 256.963 201.321 256.902 201.292C256.824 201.254 256.606 201.146 256.394 201.045C255.926 200.823 255.23 200.513 254.319 200.194L253.659 202.082C254.486 202.371 255.114 202.652 255.536 202.852C255.77 202.963 255.889 203.024 256.036 203.094C256.088 203.12 256.168 203.158 256.244 203.187C256.265 203.194 256.378 203.238 256.52 203.254C256.573 203.26 256.798 203.284 257.05 203.169C257.198 203.102 257.364 202.982 257.485 202.789C257.605 202.597 257.639 202.403 257.639 202.255H255.639ZM254.316 200.193C251.705 199.29 248.941 199.052 246.231 199.499L246.557 201.472C248.935 201.08 251.363 201.288 253.662 202.083L254.316 200.193ZM246.225 199.5C244.365 199.818 242.565 200.461 240.893 201.403L241.874 203.146C243.351 202.314 244.933 201.75 246.563 201.471L246.225 199.5ZM240.873 201.415C239.005 202.524 237.278 203.897 235.735 205.498L237.176 206.886C238.597 205.411 240.184 204.15 241.894 203.134L240.873 201.415ZM235.756 205.478C234.07 207.129 232.556 208.834 230.718 210.482L232.054 211.971C233.914 210.302 235.614 208.416 237.155 206.907L235.756 205.478ZM230.698 210.501C228.916 212.19 226.838 213.433 224.603 214.154L225.217 216.057C227.747 215.241 230.084 213.839 232.074 211.952L230.698 210.501ZM224.628 214.146C223.537 214.465 222.402 214.542 221.286 214.371L220.985 216.348C222.391 216.563 223.821 216.466 225.191 216.065L224.628 214.146ZM221.301 214.374C220.195 214.188 219.116 213.82 218.101 213.282L217.164 215.048C218.365 215.686 219.647 216.124 220.97 216.346L221.301 214.374ZM218.132 213.299C216.14 212.149 214.207 210.878 212.341 209.49L211.148 211.095C213.075 212.529 215.073 213.843 217.133 215.031L218.132 213.299ZM212.34 209.489C210.56 208.172 208.59 207.193 206.51 206.596L205.958 208.518C207.802 209.048 209.557 209.918 211.15 211.097L212.34 209.489ZM206.495 206.592C204.665 206.096 202.773 205.933 200.894 206.111L201.082 208.102C202.721 207.947 204.372 208.089 205.972 208.522L206.495 206.592ZM200.892 206.111C198.16 206.373 195.526 207.325 193.19 208.887L194.302 210.55C196.371 209.166 198.691 208.331 201.083 208.102L200.892 206.111ZM193.185 208.89C192.371 209.441 191.772 209.924 191.37 210.259C191.155 210.439 191.037 210.542 190.94 210.621C190.891 210.661 190.891 210.658 190.917 210.641C190.925 210.637 190.993 210.593 191.098 210.558C191.139 210.544 191.568 210.395 191.985 210.703L190.796 212.311C191.222 212.626 191.665 212.477 191.725 212.457C191.85 212.416 191.942 212.359 191.98 212.336C192.065 212.282 192.146 212.218 192.199 212.175C192.308 212.087 192.483 211.937 192.653 211.794C193.023 211.485 193.566 211.047 194.306 210.547L193.185 208.89ZM192.207 212.085C192.312 211.936 192.432 211.805 192.563 211.694L191.267 210.171C191.006 210.393 190.774 210.648 190.574 210.93L192.207 212.085ZM192.621 211.64C193.108 211.154 193.628 210.715 194.177 210.325L193.02 208.694C192.378 209.149 191.772 209.662 191.208 210.225L192.621 211.64ZM194.181 210.322C195.93 209.069 197.881 208.222 199.919 207.827L199.538 205.863C197.209 206.316 194.991 207.281 193.016 208.696L194.181 210.322ZM199.919 207.827C201.957 207.431 204.045 207.493 206.062 208.01L206.558 206.072C204.255 205.482 201.867 205.411 199.538 205.863L199.919 207.827ZM206.042 208.004C207.941 208.534 209.752 209.412 211.399 210.606L212.573 208.987C210.739 207.657 208.713 206.672 206.579 206.078L206.042 208.004ZM211.393 210.601C213.302 212.009 215.28 213.299 217.318 214.465L218.311 212.729C216.341 211.602 214.427 210.354 212.579 208.992L211.393 210.601ZM217.32 214.466C219.675 215.805 222.398 216.164 224.983 215.463L224.46 213.533C222.394 214.092 220.214 213.811 218.309 212.728L217.32 214.466ZM225.02 215.452C227.491 214.677 229.778 213.336 231.736 211.523L230.377 210.055C228.628 211.675 226.598 212.861 224.422 213.544L225.02 215.452ZM231.722 211.536C233.552 209.905 235.264 208.022 236.826 206.513L235.437 205.075C233.714 206.739 232.211 208.421 230.391 210.042L231.722 211.536ZM236.847 206.493C238.308 204.997 239.938 203.722 241.692 202.701L240.686 200.973C238.772 202.087 237 203.474 235.416 205.095L236.847 206.493ZM241.671 202.713C243.534 201.688 245.556 201.086 247.621 200.937L247.478 198.942C245.118 199.112 242.817 199.8 240.707 200.961L241.671 202.713ZM247.621 200.937C249.686 200.789 251.759 201.096 253.721 201.844L254.434 199.975C252.202 199.124 249.838 198.773 247.478 198.942L247.621 200.937ZM253.728 201.846C254.342 202.076 254.939 202.361 255.513 202.699L256.528 200.975C255.854 200.579 255.152 200.244 254.428 199.973L253.728 201.846ZM255.547 202.717C255.704 202.802 255.856 202.905 256 203.024L257.278 201.486C257.034 201.283 256.772 201.106 256.495 200.956L255.547 202.717Z" fill="#E8E9ED" mask="url(#path-15-inside-1_2894_49084)"/>
<path d="M204.514 236.767V216.761H210.514V236.767H204.514Z" fill="#0158A3" stroke="#E8E9ED"/>
<path d="M234.235 236.767V216.761H240.236V236.767H234.235Z" fill="#0158A3" stroke="#E8E9ED"/>
<path d="M244.139 236.761V204.42H250.139V236.761H244.139Z" fill="#0158A3" stroke="#E8E9ED"/>
<path d="M195.452 237.224V231.153H201.453V237.224H195.452Z" fill="#0158A3" stroke="#E8E9ED"/>
<path d="M214.423 236.761V226.242H220.429V236.761H214.423Z" fill="#0158A3" stroke="#E8E9ED"/>
<path d="M224.325 236.76V223.597H230.326V236.76H224.325Z" fill="#0158A3" stroke="#E8E9ED"/>
<mask id="path-23-inside-2_2894_49084" fill="white">
<path d="M211.302 239.742C211.302 239.912 209.606 240.056 207.516 240.056C205.426 240.056 203.73 239.912 203.73 239.742C203.73 239.572 205.426 239.429 207.516 239.429C209.606 239.429 211.302 239.566 211.302 239.742Z"/>
</mask>
<path d="M211.302 239.742C211.302 239.912 209.606 240.056 207.516 240.056C205.426 240.056 203.73 239.912 203.73 239.742C203.73 239.572 205.426 239.429 207.516 239.429C209.606 239.429 211.302 239.566 211.302 239.742Z" fill="#263238"/>
<path d="M210.302 239.742C210.302 239.306 210.574 239.06 210.657 238.994C210.755 238.915 210.84 238.881 210.854 238.876C210.891 238.861 210.89 238.866 210.813 238.881C210.675 238.908 210.44 238.938 210.11 238.966C209.46 239.02 208.542 239.056 207.516 239.056V241.056C208.58 241.056 209.556 241.019 210.276 240.959C210.631 240.929 210.951 240.892 211.196 240.844C211.31 240.822 211.458 240.788 211.597 240.733C211.661 240.707 211.784 240.653 211.909 240.553C212.017 240.467 212.302 240.2 212.302 239.742H210.302ZM207.516 239.056C206.49 239.056 205.573 239.02 204.923 238.966C204.593 238.938 204.358 238.908 204.219 238.881C204.142 238.866 204.141 238.861 204.179 238.876C204.192 238.881 204.277 238.915 204.376 238.994C204.458 239.06 204.73 239.306 204.73 239.742H202.73C202.73 240.2 203.016 240.467 203.124 240.553C203.249 240.653 203.372 240.707 203.436 240.733C203.575 240.788 203.722 240.822 203.837 240.844C204.082 240.892 204.401 240.929 204.756 240.959C205.477 241.019 206.452 241.056 207.516 241.056V239.056ZM204.73 239.742C204.73 240.179 204.458 240.424 204.376 240.49C204.277 240.57 204.192 240.603 204.179 240.608C204.141 240.623 204.142 240.618 204.219 240.603C204.358 240.576 204.593 240.546 204.923 240.518C205.573 240.464 206.49 240.429 207.516 240.429V238.429C206.452 238.429 205.477 238.465 204.756 238.525C204.401 238.555 204.082 238.592 203.837 238.64C203.722 238.662 203.575 238.696 203.436 238.751C203.372 238.777 203.249 238.831 203.124 238.931C203.016 239.018 202.73 239.285 202.73 239.742H204.73ZM207.516 240.429C208.543 240.429 209.461 240.463 210.111 240.516C210.441 240.543 210.675 240.573 210.812 240.6C210.888 240.615 210.887 240.62 210.847 240.604C210.831 240.597 210.745 240.562 210.645 240.48C210.557 240.407 210.302 240.163 210.302 239.742H212.302C212.302 239.299 212.034 239.033 211.92 238.939C211.794 238.835 211.669 238.779 211.604 238.752C211.462 238.695 211.313 238.66 211.197 238.638C210.951 238.589 210.63 238.552 210.275 238.523C209.554 238.463 208.579 238.429 207.516 238.429V240.429Z" fill="#E8E9ED" mask="url(#path-23-inside-2_2894_49084)"/>
<mask id="path-25-inside-3_2894_49084" fill="white">
<path d="M202.589 239.742C202.589 239.912 200.894 240.056 198.803 240.056C196.713 240.056 195.018 239.912 195.018 239.742C195.018 239.572 196.713 239.429 198.803 239.429C200.894 239.429 202.589 239.566 202.589 239.742Z"/>
</mask>
<path d="M202.589 239.742C202.589 239.912 200.894 240.056 198.803 240.056C196.713 240.056 195.018 239.912 195.018 239.742C195.018 239.572 196.713 239.429 198.803 239.429C200.894 239.429 202.589 239.566 202.589 239.742Z" fill="#263238"/>
<path d="M201.589 239.742C201.589 239.306 201.861 239.06 201.944 238.994C202.042 238.915 202.127 238.881 202.141 238.876C202.179 238.861 202.177 238.866 202.1 238.881C201.962 238.908 201.727 238.938 201.397 238.966C200.747 239.02 199.829 239.056 198.803 239.056V241.056C199.868 241.056 200.843 241.019 201.563 240.959C201.918 240.929 202.238 240.892 202.483 240.844C202.598 240.822 202.745 240.788 202.884 240.733C202.948 240.707 203.071 240.653 203.196 240.553C203.304 240.467 203.589 240.2 203.589 239.742H201.589ZM198.803 239.056C197.777 239.056 196.86 239.02 196.21 238.966C195.88 238.938 195.645 238.908 195.506 238.881C195.429 238.866 195.428 238.861 195.466 238.876C195.48 238.881 195.565 238.915 195.663 238.994C195.745 239.06 196.018 239.306 196.018 239.742H194.018C194.018 240.2 194.303 240.467 194.411 240.553C194.536 240.653 194.659 240.707 194.723 240.733C194.862 240.788 195.009 240.822 195.124 240.844C195.369 240.892 195.689 240.929 196.044 240.959C196.764 241.019 197.739 241.056 198.803 241.056V239.056ZM196.018 239.742C196.018 240.179 195.745 240.424 195.663 240.49C195.565 240.57 195.48 240.603 195.466 240.608C195.428 240.623 195.429 240.618 195.506 240.603C195.645 240.576 195.88 240.546 196.21 240.518C196.86 240.464 197.777 240.429 198.803 240.429V238.429C197.739 238.429 196.764 238.465 196.044 238.525C195.689 238.555 195.369 238.592 195.124 238.64C195.009 238.662 194.862 238.696 194.723 238.751C194.659 238.777 194.536 238.831 194.411 238.931C194.303 239.018 194.018 239.285 194.018 239.742H196.018ZM198.803 240.429C199.831 240.429 200.748 240.463 201.398 240.516C201.728 240.543 201.962 240.573 202.099 240.6C202.175 240.615 202.174 240.62 202.134 240.604C202.119 240.597 202.032 240.562 201.933 240.48C201.844 240.407 201.589 240.163 201.589 239.742H203.589C203.589 239.299 203.321 239.033 203.207 238.939C203.082 238.835 202.956 238.779 202.891 238.752C202.75 238.695 202.6 238.66 202.484 238.638C202.238 238.589 201.917 238.552 201.562 238.523C200.842 238.463 199.866 238.429 198.803 238.429V240.429Z" fill="#E8E9ED" mask="url(#path-25-inside-3_2894_49084)"/>
<mask id="path-27-inside-4_2894_49084" fill="white">
<path d="M252.023 239.742C252.023 239.912 250.109 240.056 247.748 240.056C245.387 240.056 243.468 239.912 243.468 239.742C243.468 239.572 245.381 239.429 247.748 239.429C250.115 239.429 252.023 239.566 252.023 239.742Z"/>
</mask>
<path d="M252.023 239.742C252.023 239.912 250.109 240.056 247.748 240.056C245.387 240.056 243.468 239.912 243.468 239.742C243.468 239.572 245.381 239.429 247.748 239.429C250.115 239.429 252.023 239.566 252.023 239.742Z" fill="#263238"/>
<path d="M251.023 239.742C251.023 239.252 251.36 239.002 251.421 238.959C251.517 238.89 251.596 238.864 251.602 238.862C251.626 238.853 251.608 238.861 251.517 238.877C251.348 238.906 251.073 238.937 250.697 238.965C249.955 239.02 248.912 239.056 247.748 239.056V241.056C248.946 241.056 250.04 241.019 250.844 240.96C251.242 240.93 251.593 240.894 251.857 240.848C251.981 240.827 252.132 240.796 252.27 240.747C252.333 240.725 252.455 240.678 252.58 240.589C252.67 240.525 253.023 240.254 253.023 239.742H251.023ZM247.748 239.056C246.585 239.056 245.54 239.02 244.796 238.965C244.42 238.937 244.144 238.906 243.974 238.877C243.882 238.861 243.864 238.853 243.888 238.861C243.894 238.863 243.972 238.89 244.068 238.958C244.128 239 244.468 239.25 244.468 239.742H242.468C242.468 240.255 242.822 240.526 242.911 240.589C243.037 240.678 243.159 240.725 243.222 240.747C243.36 240.796 243.51 240.827 243.635 240.848C243.899 240.894 244.251 240.93 244.649 240.96C245.455 241.019 246.551 241.056 247.748 241.056V239.056ZM244.468 239.742C244.468 240.232 244.13 240.482 244.069 240.526C243.973 240.594 243.894 240.62 243.889 240.623C243.865 240.631 243.882 240.623 243.974 240.607C244.142 240.578 244.418 240.547 244.794 240.519C245.537 240.464 246.582 240.429 247.748 240.429V238.429C246.548 238.429 245.452 238.465 244.647 238.524C244.249 238.554 243.898 238.591 243.634 238.636C243.509 238.658 243.359 238.688 243.221 238.737C243.158 238.76 243.036 238.807 242.91 238.896C242.821 238.96 242.468 239.231 242.468 239.742H244.468ZM247.748 240.429C248.916 240.429 249.959 240.463 250.7 240.517C251.076 240.544 251.349 240.575 251.516 240.604C251.607 240.62 251.622 240.628 251.595 240.618C251.587 240.615 251.506 240.587 251.409 240.515C251.339 240.464 251.023 240.215 251.023 239.742H253.023C253.023 239.247 252.692 238.976 252.593 238.904C252.466 238.811 252.342 238.761 252.277 238.738C252.137 238.687 251.984 238.655 251.859 238.634C251.594 238.587 251.243 238.551 250.846 238.522C250.042 238.463 248.947 238.429 247.748 238.429V240.429Z" fill="#E8E9ED" mask="url(#path-27-inside-4_2894_49084)"/>
<mask id="path-29-inside-5_2894_49084" fill="white">
<path d="M237.344 240.056C239.705 240.056 241.618 239.915 241.618 239.742C241.618 239.569 239.705 239.429 237.344 239.429C234.983 239.429 233.069 239.569 233.069 239.742C233.069 239.915 234.983 240.056 237.344 240.056Z"/>
</mask>
<path d="M237.344 240.056C239.705 240.056 241.618 239.915 241.618 239.742C241.618 239.569 239.705 239.429 237.344 239.429C234.983 239.429 233.069 239.569 233.069 239.742C233.069 239.915 234.983 240.056 237.344 240.056Z" fill="#263238"/>
<path d="M240.618 239.742C240.618 239.26 240.946 239.01 241.011 238.963C241.108 238.893 241.188 238.866 241.194 238.864C241.22 238.855 241.203 238.863 241.112 238.879C240.944 238.908 240.669 238.939 240.293 238.966C239.551 239.021 238.508 239.056 237.344 239.056V241.056C238.541 241.056 239.635 241.02 240.44 240.961C240.837 240.932 241.189 240.895 241.453 240.849C241.578 240.828 241.73 240.797 241.869 240.747C241.932 240.724 242.056 240.676 242.182 240.585C242.276 240.517 242.618 240.246 242.618 239.742H240.618ZM237.344 239.056C236.18 239.056 235.137 239.021 234.394 238.966C234.019 238.939 233.744 238.908 233.576 238.879C233.485 238.863 233.468 238.855 233.494 238.864C233.5 238.866 233.58 238.893 233.677 238.963C233.742 239.01 234.069 239.26 234.069 239.742H232.069C232.069 240.246 232.412 240.517 232.506 240.585C232.632 240.676 232.755 240.724 232.819 240.747C232.958 240.797 233.11 240.828 233.234 240.849C233.499 240.895 233.85 240.932 234.248 240.961C235.053 241.02 236.147 241.056 237.344 241.056V239.056ZM234.069 239.742C234.069 240.224 233.742 240.474 233.677 240.521C233.58 240.591 233.5 240.618 233.494 240.62C233.468 240.629 233.485 240.621 233.576 240.605C233.744 240.576 234.019 240.545 234.394 240.518C235.137 240.463 236.18 240.429 237.344 240.429V238.429C236.147 238.429 235.053 238.464 234.248 238.523C233.85 238.552 233.499 238.589 233.234 238.635C233.11 238.656 232.958 238.688 232.819 238.738C232.755 238.76 232.632 238.808 232.506 238.899C232.412 238.967 232.069 239.238 232.069 239.742H234.069ZM237.344 240.429C238.508 240.429 239.551 240.463 240.293 240.518C240.669 240.545 240.944 240.576 241.112 240.605C241.203 240.621 241.22 240.629 241.194 240.62C241.188 240.618 241.108 240.591 241.011 240.521C240.946 240.474 240.618 240.224 240.618 239.742H242.618C242.618 239.238 242.276 238.967 242.182 238.899C242.056 238.808 241.932 238.76 241.869 238.738C241.73 238.688 241.578 238.656 241.453 238.635C241.189 238.589 240.837 238.552 240.44 238.523C239.635 238.464 238.541 238.429 237.344 238.429V240.429Z" fill="#E8E9ED" mask="url(#path-29-inside-5_2894_49084)"/>
<mask id="path-31-inside-6_2894_49084" fill="white">
<path d="M230.832 239.742C230.832 239.912 229.137 240.056 227.047 240.056C224.956 240.056 223.261 239.912 223.261 239.742C223.261 239.572 224.956 239.429 227.047 239.429C229.137 239.429 230.832 239.566 230.832 239.742Z"/>
</mask>
<path d="M230.832 239.742C230.832 239.912 229.137 240.056 227.047 240.056C224.956 240.056 223.261 239.912 223.261 239.742C223.261 239.572 224.956 239.429 227.047 239.429C229.137 239.429 230.832 239.566 230.832 239.742Z" fill="#263238"/>
<path d="M229.832 239.742C229.832 239.306 230.105 239.06 230.187 238.994C230.285 238.915 230.37 238.881 230.384 238.876C230.422 238.861 230.42 238.866 230.344 238.881C230.205 238.908 229.97 238.938 229.64 238.966C228.99 239.02 228.073 239.056 227.047 239.056V241.056C228.111 241.056 229.086 241.019 229.806 240.959C230.161 240.929 230.481 240.892 230.726 240.844C230.841 240.822 230.988 240.788 231.127 240.733C231.191 240.707 231.314 240.653 231.439 240.553C231.547 240.467 231.832 240.2 231.832 239.742H229.832ZM227.047 239.056C226.021 239.056 225.103 239.02 224.453 238.966C224.123 238.938 223.888 238.908 223.75 238.881C223.673 238.866 223.671 238.861 223.709 238.876C223.723 238.881 223.808 238.915 223.906 238.994C223.989 239.06 224.261 239.306 224.261 239.742H222.261C222.261 240.2 222.546 240.467 222.654 240.553C222.779 240.653 222.902 240.707 222.966 240.733C223.105 240.788 223.252 240.822 223.367 240.844C223.612 240.892 223.932 240.929 224.287 240.959C225.007 241.019 225.982 241.056 227.047 241.056V239.056ZM224.261 239.742C224.261 240.179 223.989 240.424 223.906 240.49C223.808 240.57 223.723 240.603 223.709 240.608C223.671 240.623 223.673 240.618 223.75 240.603C223.888 240.576 224.123 240.546 224.453 240.518C225.103 240.464 226.021 240.429 227.047 240.429V238.429C225.982 238.429 225.007 238.465 224.287 238.525C223.932 238.555 223.612 238.592 223.367 238.64C223.252 238.662 223.105 238.696 222.966 238.751C222.902 238.777 222.779 238.831 222.654 238.931C222.546 239.018 222.261 239.285 222.261 239.742H224.261ZM227.047 240.429C228.074 240.429 228.991 240.463 229.641 240.516C229.972 240.543 230.205 240.573 230.342 240.6C230.418 240.615 230.417 240.62 230.377 240.604C230.362 240.597 230.275 240.562 230.176 240.48C230.087 240.407 229.832 240.163 229.832 239.742H231.832C231.832 239.299 231.564 239.033 231.45 238.939C231.325 238.835 231.2 238.779 231.134 238.752C230.993 238.695 230.843 238.66 230.728 238.638C230.481 238.589 230.16 238.552 229.805 238.523C229.085 238.463 228.11 238.429 227.047 238.429V240.429Z" fill="#E8E9ED" mask="url(#path-31-inside-6_2894_49084)"/>
<mask id="path-33-inside-7_2894_49084" fill="white">
<path d="M220.593 239.742C220.593 239.912 218.903 240.056 216.813 240.056C214.723 240.056 213.027 239.912 213.027 239.742C213.027 239.572 214.723 239.429 216.813 239.429C218.903 239.429 220.593 239.566 220.593 239.742Z"/>
</mask>
<path d="M220.593 239.742C220.593 239.912 218.903 240.056 216.813 240.056C214.723 240.056 213.027 239.912 213.027 239.742C213.027 239.572 214.723 239.429 216.813 239.429C218.903 239.429 220.593 239.566 220.593 239.742Z" fill="#263238"/>
<path d="M219.593 239.742C219.593 239.307 219.864 239.061 219.946 238.995C220.045 238.915 220.13 238.882 220.144 238.876C220.182 238.861 220.181 238.866 220.105 238.881C219.967 238.908 219.733 238.938 219.404 238.966C218.755 239.02 217.839 239.056 216.813 239.056V241.056C217.877 241.056 218.851 241.019 219.57 240.959C219.925 240.929 220.244 240.892 220.488 240.844C220.603 240.822 220.75 240.788 220.889 240.732C220.953 240.707 221.076 240.653 221.201 240.552C221.309 240.465 221.593 240.198 221.593 239.742H219.593ZM216.813 239.056C215.787 239.056 214.87 239.02 214.22 238.966C213.889 238.938 213.654 238.908 213.516 238.881C213.439 238.866 213.438 238.861 213.476 238.876C213.489 238.881 213.574 238.915 213.673 238.994C213.755 239.06 214.027 239.306 214.027 239.742H212.027C212.027 240.2 212.313 240.467 212.421 240.553C212.545 240.653 212.669 240.707 212.733 240.733C212.871 240.788 213.019 240.822 213.134 240.844C213.379 240.892 213.698 240.929 214.053 240.959C214.774 241.019 215.749 241.056 216.813 241.056V239.056ZM214.027 239.742C214.027 240.179 213.755 240.424 213.673 240.49C213.574 240.57 213.489 240.603 213.476 240.608C213.438 240.623 213.439 240.618 213.516 240.603C213.654 240.576 213.889 240.546 214.22 240.518C214.87 240.464 215.787 240.429 216.813 240.429V238.429C215.749 238.429 214.774 238.465 214.053 238.525C213.698 238.555 213.379 238.592 213.134 238.64C213.019 238.662 212.871 238.696 212.733 238.751C212.669 238.777 212.545 238.831 212.421 238.931C212.313 239.018 212.027 239.285 212.027 239.742H214.027ZM216.813 240.429C217.84 240.429 218.757 240.463 219.405 240.516C219.734 240.543 219.967 240.573 220.103 240.6C220.179 240.615 220.178 240.62 220.137 240.603C220.121 240.597 220.035 240.562 219.935 240.479C219.847 240.406 219.593 240.162 219.593 239.742H221.593C221.593 239.3 221.326 239.035 221.212 238.94C221.087 238.836 220.962 238.78 220.896 238.753C220.755 238.695 220.605 238.66 220.49 238.638C220.244 238.589 219.923 238.552 219.569 238.523C218.85 238.463 217.876 238.429 216.813 238.429V240.429Z" fill="#E8E9ED" mask="url(#path-33-inside-7_2894_49084)"/>
<path d="M195.287 190.08V164.719H251.522V190.08H195.287Z" fill="#E0E0E0" stroke="#E8E9ED"/>
<path d="M206.23 172.246C206.231 172.708 206.096 173.16 205.841 173.545C205.586 173.929 205.224 174.229 204.8 174.406C204.376 174.583 203.91 174.63 203.46 174.541C203.01 174.451 202.596 174.23 202.27 173.904C201.945 173.578 201.723 173.162 201.633 172.709C201.543 172.256 201.589 171.786 201.764 171.359C201.94 170.932 202.238 170.567 202.62 170.311C203.002 170.055 203.45 169.918 203.909 169.918C204.523 169.918 205.112 170.163 205.548 170.599C205.983 171.035 206.229 171.628 206.23 172.246Z" fill="#263238" stroke="#F0F7FF"/>
<path d="M209.848 171.143V171H227.441V171.143H209.848Z" fill="#40444C" stroke="#8E95A2"/>
<path d="M209.848 173.749V173.606H245.016V173.749H209.848Z" fill="white" stroke="#8E95A2"/>
<path d="M206.23 181.312L206.23 181.313C206.231 181.775 206.096 182.227 205.841 182.611C205.586 182.996 205.224 183.295 204.8 183.472C204.376 183.65 203.91 183.696 203.46 183.607C203.01 183.518 202.596 183.296 202.27 182.97C201.945 182.644 201.723 182.229 201.633 181.775C201.543 181.322 201.589 180.852 201.764 180.426C201.94 179.999 202.238 179.634 202.62 179.378C203.002 179.121 203.45 178.985 203.909 178.985L203.91 178.985C204.214 178.984 204.516 179.044 204.797 179.16C205.078 179.276 205.334 179.448 205.549 179.664C205.765 179.88 205.936 180.136 206.053 180.419C206.17 180.702 206.23 181.005 206.23 181.312Z" fill="#0158A3" stroke="#F0F7FF"/>
<path d="M209.848 180.246V180.103H218.339V180.246H209.848Z" fill="#0158A3" stroke="#8E95A2"/>
<path d="M209.848 182.845V182.702H245.016V182.845H209.848Z" fill="white" stroke="#8E95A2"/>
<path d="M266.586 109.351H177.341C175.81 109.351 174.569 110.51 174.569 111.94V131.696C174.569 133.126 175.81 134.285 177.341 134.285H266.586C268.117 134.285 269.358 133.126 269.358 131.696V111.94C269.358 110.51 268.117 109.351 266.586 109.351Z" fill="#E0E0E0"/>
<path d="M173.793 128.618C176.909 128.618 179.435 126.081 179.435 122.951C179.435 119.822 176.909 117.285 173.793 117.285C170.676 117.285 168.15 119.822 168.15 122.951C168.15 126.081 170.676 128.618 173.793 128.618Z" fill="#5B616E"/>
<path d="M177.178 120.685C176.212 121.982 175.126 123.181 173.936 124.266C173.667 124.54 173.398 124.797 173.139 125.053L172.978 125.218L172.825 125.053C171.922 124.209 171.111 123.266 170.407 122.242C171.404 122.968 172.322 123.8 173.148 124.723H172.825L173.613 123.927C174.697 122.731 175.89 121.645 177.178 120.685Z" fill="white"/>
<path d="M243.756 125.785C243.756 125.458 231.12 125.218 215.545 125.218C199.97 125.218 187.334 125.458 187.334 125.785C187.334 126.112 199.961 126.351 215.545 126.351C231.129 126.351 243.756 126.112 243.756 125.785Z" fill="#FAFAFA"/>
<path d="M243.756 122.385C243.756 122.058 231.12 121.818 215.545 121.818C199.97 121.818 187.334 122.058 187.334 122.385C187.334 122.712 199.961 122.951 215.545 122.951C231.129 122.951 243.756 122.712 243.756 122.385Z" fill="#FAFAFA"/>
<path d="M260.33 118.985C260.33 118.658 247.694 118.418 232.119 118.418C216.544 118.418 203.908 118.658 203.908 118.985C203.908 119.312 216.535 119.551 232.119 119.551C247.703 119.551 260.33 119.312 260.33 118.985Z" fill="#FAFAFA"/>
<path d="M78.0778 248.751H64V255.491V363.218H78.0778V259.518H92.775V363.218H123.243V255.491V248.751H78.0778Z" fill="#455A64"/>
<path d="M105.418 83.3636L106.277 78.7219C104.273 75.3065 103.659 71.288 104.556 67.4561C105.453 63.6242 107.796 60.256 111.125 58.0133C114.453 55.7705 118.527 54.8154 122.545 55.3357C126.564 55.8559 130.236 57.8138 132.841 60.8248C135.445 63.8357 136.794 67.6819 136.622 71.6076C136.45 75.5333 134.769 79.2547 131.91 82.0405C129.051 84.8263 125.22 86.475 121.171 86.6628C117.122 86.8506 113.146 85.5638 110.026 83.0553L105.418 83.3636Z" fill="#2F8902"/>
<path d="M105.417 83.3636H105.701H106.561L110 83.1803C110.017 83.1764 110.033 83.1668 110.044 83.1532C110.055 83.1395 110.061 83.1226 110.06 83.1052L109.957 83.1969C112.664 85.4119 116.048 86.7007 119.587 86.8636C120.025 86.8636 120.446 86.8636 120.919 86.8636C121.148 86.8762 121.378 86.8762 121.607 86.8636L122.304 86.7886C124.579 86.5377 126.775 85.8259 128.748 84.6992C130.722 83.5726 132.429 82.0564 133.758 80.249C135.088 78.4416 136.011 76.3834 136.466 74.2081C136.922 72.0327 136.901 69.7887 136.404 67.6217C136.119 66.3683 135.684 65.1517 135.106 63.9967C134.5 62.8269 133.749 61.7327 132.871 60.7383C132.006 59.697 131.012 58.7622 129.913 57.9549C128.845 57.2208 127.691 56.6137 126.474 56.1466C124.123 55.2232 121.581 54.8492 119.054 55.0549C114.869 55.3862 110.974 57.2619 108.175 60.295C105.375 63.3281 103.883 67.2871 104.007 71.3551C104.088 73.9559 104.835 76.4962 106.182 78.7469V78.7052C105.933 80.2135 105.744 81.3719 105.606 82.1802L105.469 83.0636C105.461 83.1607 105.461 83.2582 105.469 83.3553C105.469 83.3553 105.469 83.2469 105.538 83.0386C105.606 82.8303 105.632 82.5302 105.71 82.1469C105.856 81.3552 106.071 80.2052 106.354 78.7302C106.358 78.7138 106.358 78.6966 106.354 78.6802C105.019 76.3887 104.3 73.8082 104.265 71.1766C104.229 68.545 104.877 65.9471 106.15 63.6224C107.423 61.2976 109.28 59.321 111.548 57.8747C113.817 56.4284 116.424 55.5589 119.131 55.3466C121.61 55.15 124.101 55.5212 126.405 56.4299C128.831 57.3548 130.98 58.853 132.656 60.7883C133.515 61.761 134.251 62.8297 134.848 63.9717C135.416 65.1021 135.843 66.2937 136.121 67.5217C136.669 69.8928 136.64 72.3553 136.035 74.7135C135.232 77.7733 133.493 80.5258 131.045 82.6084C128.597 84.691 125.555 86.0061 122.321 86.3803L121.633 86.4553C121.409 86.4553 121.186 86.4553 120.962 86.4553C120.507 86.4553 120.103 86.4553 119.638 86.4553C118.806 86.4243 117.978 86.3268 117.162 86.1636C114.566 85.6523 112.138 84.5369 110.086 82.9136C110.08 82.9066 110.073 82.901 110.065 82.8972C110.057 82.8933 110.048 82.8913 110.039 82.8913C110.03 82.8913 110.021 82.8933 110.012 82.8972C110.004 82.901 109.997 82.9066 109.991 82.9136C109.983 82.9259 109.978 82.9404 109.978 82.9553C109.978 82.9701 109.983 82.9846 109.991 82.9969V82.8969L106.621 83.1553L105.761 83.2303L105.417 83.3636Z" fill="#263238"/>
<path d="M113.336 72.0051L115.124 70.2634L118.589 73.2468L125.382 66.9134L127.05 68.6467L118.331 76.6052L113.336 72.0051Z" fill="white"/>
<path d="M75.3234 106.09C77.0047 103.562 79.2506 101.432 81.8951 99.8587C84.5397 98.285 87.5152 97.3074 90.6019 96.9981C94.2217 96.6231 95.7607 97.2231 98.4691 97.6814C101.128 98.0751 103.561 99.3575 105.347 101.306C107.545 103.619 109.107 106.43 109.887 109.482C110.499 112.414 110.6 115.425 110.188 118.39C109.497 122.208 108.164 125.891 106.242 129.29L100.773 130.407C96.1562 130.965 91.4789 131.515 86.879 130.882C82.2791 130.248 77.6706 128.273 74.9021 124.648C71.0588 119.632 71.695 111.24 75.3234 106.09Z" fill="#263238"/>
<path d="M82.7784 105.407L93.5603 100.14L96.5094 100.215C103.078 99.665 108.254 106.298 108.77 111.448C109.346 117.174 109.819 124.182 109.269 128.49C108.16 137.14 100.748 138.49 100.748 138.49C100.748 138.49 101.986 148.574 102.287 151.416L84.3949 146.116L80.0959 108.557C80.056 107.802 80.3093 107.06 80.8058 106.477C81.3023 105.894 82.0061 105.512 82.7784 105.407Z" fill="#FFBF9D"/>
<path d="M95.9414 127.624C95.9672 127.181 96.16 126.763 96.4831 126.449C96.7772 126.157 97.1621 125.967 97.5785 125.909C97.9949 125.85 98.4197 125.925 98.7874 126.124C99.1706 126.363 99.4815 126.697 99.6884 127.091C99.8953 127.484 99.9909 127.924 99.9653 128.366C99.7959 128.642 99.5682 128.881 99.297 129.066C99.0259 129.251 98.7174 129.379 98.3919 129.441H98.0823C97.5612 129.483 97.0428 129.334 96.6293 129.024C96.4133 128.856 96.2392 128.643 96.1201 128.4C96.001 128.158 95.94 127.892 95.9414 127.624Z" fill="#FF9A6C"/>
<path d="M107.059 119.165C107.073 119.453 106.97 119.735 106.772 119.95C106.574 120.165 106.298 120.296 106.001 120.315C105.856 120.332 105.709 120.319 105.57 120.28C105.43 120.24 105.299 120.173 105.186 120.084C105.073 119.995 104.98 119.884 104.912 119.76C104.843 119.635 104.802 119.498 104.789 119.357C104.779 119.07 104.883 118.791 105.08 118.577C105.277 118.363 105.551 118.23 105.846 118.207C105.991 118.191 106.138 118.203 106.278 118.243C106.418 118.283 106.548 118.349 106.661 118.438C106.774 118.528 106.867 118.638 106.936 118.763C107.004 118.888 107.046 119.025 107.059 119.165Z" fill="#263238"/>
<path d="M107.033 114.473C106.895 114.615 106.01 114.032 104.789 114.073C103.568 114.115 102.682 114.74 102.545 114.598C102.407 114.457 102.613 114.273 102.992 113.982C103.512 113.612 104.135 113.403 104.78 113.382C105.419 113.361 106.047 113.536 106.577 113.882C106.964 114.148 107.102 114.407 107.033 114.473Z" fill="#263238"/>
<path d="M100.052 124.415C100.691 124.201 101.355 124.063 102.029 124.007C102.339 124.007 102.631 123.89 102.683 123.682C102.694 123.368 102.61 123.058 102.442 122.79C102.115 122.063 101.78 121.304 101.436 120.515C100.034 117.265 99.0027 114.59 99.1402 114.54C99.2778 114.49 100.525 117.04 101.926 120.324L102.889 122.615C103.099 122.974 103.173 123.393 103.095 123.799C103.054 123.907 102.988 124.005 102.901 124.084C102.815 124.164 102.711 124.223 102.597 124.257C102.423 124.308 102.244 124.339 102.064 124.349C101.399 124.456 100.722 124.478 100.052 124.415Z" fill="#263238"/>
<path d="M100.757 138.465C96.5659 138.676 92.3973 137.75 88.7197 135.79C88.7197 135.79 92.0901 141.624 100.955 140.549L100.757 138.465Z" fill="#FF9A6C"/>
<path d="M107.042 110.832C106.845 111.132 105.899 110.965 104.807 111.09C103.715 111.215 102.812 111.523 102.563 111.273C102.451 111.148 102.563 110.865 102.933 110.557C103.429 110.18 104.025 109.949 104.652 109.89C105.287 109.814 105.931 109.924 106.501 110.207C106.956 110.407 107.128 110.69 107.042 110.832Z" fill="#263238"/>
<path d="M94.4806 120.057C94.5005 120.344 94.6344 120.612 94.8542 120.804C95.0739 120.997 95.3623 121.1 95.6585 121.09C95.8041 121.091 95.9484 121.064 96.0831 121.011C96.2177 120.957 96.3398 120.878 96.4424 120.777C96.5449 120.677 96.6258 120.558 96.6801 120.427C96.7345 120.296 96.7614 120.156 96.7591 120.015C96.7413 119.728 96.608 119.459 96.3878 119.266C96.1675 119.072 95.8779 118.971 95.5811 118.982C95.4356 118.981 95.2912 119.008 95.1566 119.062C95.022 119.115 94.8998 119.195 94.7973 119.295C94.6948 119.395 94.6139 119.514 94.5595 119.645C94.5051 119.776 94.4783 119.916 94.4806 120.057Z" fill="#263238"/>
<path d="M90.491 115.407C90.6372 115.54 91.454 114.865 92.6749 114.782C93.8958 114.698 94.8416 115.232 94.962 115.073C95.0823 114.915 94.8588 114.757 94.4461 114.507C93.892 114.187 93.2484 114.044 92.6061 114.098C91.9725 114.136 91.3689 114.373 90.8865 114.773C90.5254 115.107 90.4136 115.407 90.491 115.407Z" fill="#263238"/>
<path d="M92.0989 111.24C92.3569 111.499 93.2855 111.165 94.4204 111.099C95.5553 111.032 96.5269 111.165 96.7332 110.874C96.8278 110.732 96.6559 110.465 96.226 110.232C95.6312 109.956 94.9713 109.838 94.3139 109.891C93.6566 109.943 93.0256 110.165 92.4858 110.532C92.1075 110.84 91.97 111.124 92.0989 111.24Z" fill="#263238"/>
<path d="M82.9334 122.815C82.9334 122.173 82.0736 120.69 81.4373 120.607C79.7177 120.407 76.5451 120.607 76.6654 124.94C76.8374 130.774 82.8818 129.432 82.8904 129.265C82.899 129.099 83.0193 125.032 82.9334 122.815Z" fill="#FFBF9D"/>
<path d="M81.1539 127.165C81.1539 127.165 81.0508 127.24 80.8788 127.324C80.6246 127.42 80.342 127.42 80.0878 127.324C79.6907 127.092 79.3639 126.763 79.1405 126.369C78.917 125.975 78.8048 125.531 78.8153 125.082C78.7845 124.579 78.8697 124.075 79.0646 123.607C79.1125 123.417 79.2082 123.241 79.3433 123.096C79.4783 122.951 79.6484 122.84 79.8384 122.774C79.959 122.74 80.0878 122.747 80.2035 122.794C80.3192 122.841 80.4149 122.925 80.4747 123.032C80.5607 123.199 80.5177 123.315 80.5521 123.324C80.5865 123.332 80.681 123.224 80.6295 122.982C80.5891 122.839 80.5015 122.713 80.3801 122.624C80.2957 122.564 80.1996 122.521 80.0976 122.498C79.9956 122.475 79.8899 122.473 79.7869 122.49C79.5401 122.543 79.3115 122.657 79.1232 122.821C78.935 122.984 78.7934 123.192 78.7121 123.424C78.4685 123.946 78.3593 124.518 78.394 125.09C78.3778 125.614 78.5219 126.131 78.8079 126.576C79.094 127.021 79.5094 127.374 80.0018 127.59C80.166 127.634 80.3384 127.64 80.5055 127.609C80.6726 127.577 80.8298 127.508 80.9648 127.407C81.1453 127.307 81.1797 127.174 81.1539 127.165Z" fill="#FF9A6C"/>
<path d="M81.1963 120.649L82.8643 122.074C92.5026 115.907 102.287 99.1816 99.7765 99.865C96.6662 99.0342 93.3905 98.974 90.2499 99.69C85.4093 100.923 76.3126 104.115 76.9747 109.69C77.6367 115.265 81.1963 120.649 81.1963 120.649Z" fill="#263238"/>
<path d="M78.3592 97.1813C80.7064 98.5146 82.7958 102.39 81.7984 104.856C82.0133 106.147 81.8865 107.47 81.43 108.701C80.9735 109.931 80.2022 111.029 79.1883 111.892C78.1745 112.755 76.9513 113.354 75.6333 113.633C74.3153 113.913 72.9457 113.863 71.6528 113.49C69.8623 112.958 68.3337 111.811 67.3538 110.265C66.2759 108.371 65.9401 106.163 66.408 104.048C66.6332 102.746 67.125 101.501 67.8545 100.386C68.584 99.271 69.5363 98.3089 70.6554 97.5563C71.7854 96.8265 73.0979 96.4064 74.454 96.3404C75.8102 96.2744 77.1595 96.5649 78.3592 97.1813Z" fill="#263238"/>
<path d="M77.8262 120.666C78.2125 120.55 78.5844 120.394 78.9353 120.199C79.6317 119.874 80.6549 119.366 81.8242 118.707C84.9751 116.991 87.8923 114.9 90.5082 112.482C93.1318 110.053 95.2635 107.17 96.7933 103.982C97.2464 103.015 97.6201 102.014 97.911 100.99C98.0408 100.621 98.1245 100.237 98.1604 99.8486C98.0744 99.8486 97.6961 101.449 96.501 103.849C94.9072 106.957 92.7723 109.777 90.19 112.182C87.5878 114.563 84.7249 116.662 81.6523 118.441C80.4743 119.132 79.5114 119.674 78.8407 120.049C78.4832 120.223 78.1435 120.429 77.8262 120.666Z" fill="#455A64"/>
<path d="M72.5469 116.24C72.6329 116.24 72.6673 115.149 73.0026 113.424C73.8958 108.909 76.2084 104.772 79.623 101.582C80.9213 100.365 81.8499 99.74 81.8069 99.6733C81.5575 99.7691 81.3231 99.8981 81.1105 100.057C80.5067 100.448 79.9321 100.879 79.3909 101.348C77.5993 102.904 76.0983 104.748 74.9543 106.798C73.8046 108.844 73.0334 111.07 72.6759 113.374C72.5628 114.066 72.5025 114.765 72.4953 115.465C72.4721 115.725 72.4895 115.986 72.5469 116.24Z" fill="#455A64"/>
<path d="M78.9775 129.874C78.9775 130.309 79.1107 130.734 79.3601 131.096C79.6095 131.458 79.964 131.74 80.3788 131.906C80.7935 132.073 81.2499 132.117 81.6902 132.032C82.1305 131.947 82.535 131.737 82.8524 131.43C83.1699 131.122 83.3861 130.73 83.4736 130.303C83.5612 129.876 83.5163 129.434 83.3445 129.032C83.1727 128.63 82.8817 128.286 82.5085 128.045C82.1352 127.803 81.6963 127.674 81.2474 127.674C80.6454 127.674 80.068 127.906 79.6424 128.318C79.2167 128.731 78.9775 129.29 78.9775 129.874Z" fill="#263238"/>
<path d="M100.335 128.549C100.335 128.34 98.8904 128.549 97.6781 127.582C96.4658 126.615 96.3454 125.082 96.1477 125.082C95.9499 125.082 95.9327 125.457 96.0273 126.074C96.1603 126.88 96.5837 127.615 97.2224 128.149C97.8355 128.656 98.6268 128.916 99.4321 128.874C100.034 128.857 100.361 128.64 100.335 128.549Z" fill="#263238"/>
<path d="M68.0243 203.291C68.0243 203.291 61.2577 226.416 65.273 238.975C67.689 246.475 101.513 288 103.104 289.809C104.239 291.05 88.6423 330.251 85.7877 338.418L103.723 346.843C103.723 346.843 126.164 300.592 127.539 292.484C129.259 282.075 104.058 237.55 104.978 236.95L114.058 218.616L106.586 199.691C106.586 199.691 74.8425 200.024 68.3683 200.524L68.0243 203.291Z" fill="#263238"/>
<path d="M107.256 216.925C107.256 216.925 151.002 231.975 155.938 234.517C161.311 237.292 165.395 247.017 160.89 255.309C156.385 263.6 117.04 287.292 117.04 287.292L107.256 272.809L135.715 251.075L104.866 244.042L94.8662 232.508L107.256 216.925Z" fill="#263238"/>
<path d="M127.575 292.192C127.67 291.214 127.67 290.229 127.575 289.251C127.167 286.59 126.425 283.987 125.365 281.501C124.737 279.909 123.989 278.167 123.207 276.326C122.803 275.401 122.424 274.417 122.029 273.426C121.633 272.434 121.169 271.426 120.722 270.384C118.856 266.217 116.733 261.734 114.497 257C110.886 249.392 107.559 242.367 104.876 236.733V236.675V236.617C106.011 232.05 107.017 228.283 107.773 225.725C108.16 224.433 108.487 223.433 108.736 222.758C108.831 222.503 108.94 222.252 109.063 222.008C109.166 221.842 109.218 221.767 109.227 221.775C109.235 221.783 109.227 221.867 109.115 222.033C109.003 222.2 108.96 222.458 108.84 222.792C108.616 223.475 108.332 224.458 107.98 225.783C107.283 228.375 106.338 232.125 105.237 236.7V236.583C107.963 242.183 111.342 249.2 114.944 256.817C117.18 261.559 119.243 266.075 121.135 270.225C121.59 271.267 122.046 272.276 122.433 273.292C122.82 274.309 123.19 275.259 123.585 276.192C124.359 278.051 125.09 279.784 125.692 281.392C126.733 283.909 127.438 286.544 127.79 289.234C127.895 290.225 127.823 291.226 127.575 292.192Z" fill="#455A64"/>
<path opacity="0.3" d="M107.876 225.634C107.79 225.942 107.876 236.775 107.876 236.775L113.465 246L108.977 244.975L104.987 236.925L107.876 225.634Z" fill="black"/>
<path d="M132.698 223.975C131.435 222.775 127.737 219.408 125.132 217.041C124.925 216.84 124.783 216.584 124.723 216.306C124.663 216.028 124.688 215.738 124.795 215.473C124.901 215.209 125.085 214.979 125.324 214.814C125.562 214.648 125.845 214.554 126.138 214.541L156.102 213.949C156.322 213.942 156.542 213.982 156.744 214.067C156.947 214.152 157.127 214.28 157.271 214.441L163.531 221.258C163.722 221.468 163.847 221.726 163.892 222.002C163.938 222.279 163.901 222.562 163.787 222.819C163.672 223.075 163.485 223.295 163.246 223.453C163.007 223.61 162.727 223.699 162.439 223.708L133.799 224.441C133.592 224.441 133.388 224.399 133.199 224.319C133.009 224.239 132.839 224.121 132.698 223.975Z" fill="#455A64"/>
<path d="M124.221 218.742C126.444 217.822 128.787 217.205 131.185 216.908C134.624 216.575 136.404 217.992 138.27 217.825C140.135 217.658 145.234 218.142 145.234 219.492C145.234 220.842 138.149 221.3 138.149 221.3L144.366 223.225C144.366 223.225 151.45 222.392 151.579 223.225C151.708 224.058 145.234 224.892 142.251 225.275C139.267 225.658 121.977 225.875 119.492 225.275C117.007 224.675 99.3467 214.308 99.3467 214.308L107.807 205.875L124.221 218.742Z" fill="#FFBF9D"/>
<path d="M80.6722 143.316C78.1123 143.844 75.7471 145.033 73.8266 146.756C71.9061 148.48 70.5016 150.674 69.7614 153.107C67.4486 160.241 71.8593 189.566 73.7337 194.866C75.608 200.166 95.7961 217.2 97.5758 215.75C99.3556 214.3 109.166 205.866 109.166 205.866L93.3886 187.766C93.3886 187.766 94.2484 166.283 93.1823 162.224C92.1161 158.166 85.0916 142.907 80.6722 143.316Z" fill="#0158A3"/>
<path d="M70.801 179.082C71.9531 189.274 69.7004 193.649 69.7004 193.649C68.0576 194.951 67.0029 196.823 66.7599 198.866C66.7323 199.08 66.753 199.297 66.8208 199.502C66.8885 199.708 67.0016 199.896 67.1522 200.055C67.3028 200.214 67.4872 200.339 67.6927 200.421C67.8982 200.504 68.1197 200.542 68.342 200.533L106.56 199.699C106.56 199.699 111.908 200.191 111.796 195.274C111.667 189.791 113.223 170.516 111.168 162.932C110.463 160.316 101.711 147.565 101.711 147.565L83.4916 137.565L81.557 142.382C81.557 142.382 75.7792 144.424 73.1396 147.724C71.3928 149.836 70.1454 152.294 69.4855 154.924C67.8949 160.174 70.1819 173.624 70.801 179.082Z" fill="#0158A3"/>
<path d="M166.892 162.074C166.892 162.074 166.565 161.782 165.405 162.141C164.244 162.499 160.951 164.074 159.455 164.449C157.959 164.824 154.717 166.032 154.717 166.032C153.236 166.011 151.792 166.482 150.625 167.366C148.338 168.899 141.872 173.032 141.872 173.032L144.09 179.132C145.147 178.936 146.224 178.869 147.297 178.932C148.819 179.215 150.388 179.153 151.88 178.749C153.6 178.232 156.016 177.316 156.016 177.316C156.016 177.316 158.329 177.499 158.939 176.682C159.549 175.866 158.939 174.399 158.939 174.399C158.939 174.399 161.209 172.374 160.237 171.241C159.266 170.107 158.045 168.841 158.045 168.841C158.045 168.841 164.786 165.374 166.058 164.457C167.331 163.541 167.546 162.824 166.892 162.074Z" fill="#FFBF9D"/>
<path d="M141.873 173.058L120.894 179.9L112.416 184.05L124.316 190.266L144.091 179.149L141.873 173.058Z" fill="#FFBF9D"/>
<path d="M154.581 168.032C154.971 169.768 154.882 171.574 154.323 173.266L154.22 173.591L154.048 173.316C155.44 173.557 156.679 173.791 157.573 173.991C158.467 174.191 158.974 174.541 158.923 174.582C158.459 174.455 157.988 174.355 157.513 174.282C156.653 174.166 155.363 173.974 153.97 173.741L153.729 173.699L153.798 173.466C153.798 173.366 153.858 173.257 153.884 173.149C154.28 171.468 154.514 169.755 154.581 168.032Z" fill="#FF9A6C"/>
<path d="M154.477 170.924C154.477 170.883 154.666 170.924 154.907 171.058C155.246 171.284 155.49 171.621 155.594 172.008L155.362 171.849C155.757 171.785 156.157 171.749 156.557 171.741C157.484 171.65 158.417 171.837 159.231 172.274C159.231 172.391 158.019 172.141 156.566 172.174C156.153 172.174 155.766 172.174 155.423 172.241H155.233V172.074C155.036 171.299 154.417 170.991 154.477 170.924Z" fill="#FF9A6C"/>
<path d="M157.633 169.358C157.711 169.466 157.143 169.924 156.636 170.633C156.129 171.341 155.854 171.999 155.733 171.974C155.613 171.949 155.733 171.141 156.266 170.383C156.799 169.624 157.582 169.258 157.633 169.358Z" fill="#FF9A6C"/>
<path d="M101.342 143.082L103.448 148.574C105.735 150.674 111.444 156.599 112.528 160.674C113.946 166.007 120.343 179.408 120.343 179.408C120.343 179.408 134.839 173.416 135.82 174.408C136.8 175.399 141.898 186.908 140.23 189.358C138.562 191.808 123.782 198.124 117.764 196.691C111.745 195.258 106.096 186.866 106.096 186.866L101.342 143.082Z" fill="#0158A3"/>
<path d="M110.886 160.732C111.077 161.136 111.235 161.554 111.359 161.982C111.537 162.475 111.681 162.979 111.789 163.491C111.97 164.158 112.113 164.834 112.219 165.516C112.52 167.293 112.687 169.09 112.718 170.891C112.718 172.924 112.718 175.149 112.528 177.482C112.202 182.149 111.858 186.357 111.901 189.408C111.901 190.174 111.901 190.866 111.901 191.466C111.901 192.066 111.952 192.599 111.987 193.024C112.049 193.463 112.069 193.907 112.047 194.349C111.933 193.92 111.855 193.482 111.815 193.041C111.755 192.616 111.686 192.091 111.651 191.483C111.617 190.874 111.54 190.183 111.54 189.416C111.419 186.341 111.712 182.107 112.038 177.457C112.193 175.132 112.279 172.916 112.262 170.899C112.248 169.115 112.116 167.333 111.866 165.566C111.436 162.549 110.757 160.757 110.886 160.732Z" fill="#263238"/>
<path d="M120.12 187.349C119.862 184.636 119.902 181.904 120.24 179.199C120.446 180.548 120.501 181.914 120.403 183.274C120.464 184.639 120.369 186.005 120.12 187.349Z" fill="#263238"/>
<path d="M93.0786 159.774C93.0984 159.937 93.0984 160.102 93.0786 160.266C93.0786 160.641 93.0786 161.099 93.0786 161.674C93.0786 162.957 93.1216 164.716 93.1474 166.857C93.1989 171.232 93.4397 177.282 93.2505 183.966C93.1352 185.558 93.4307 187.154 94.1103 188.608C94.9218 189.881 95.8731 191.066 96.9477 192.141L102.287 197.908L105.726 201.858L106.663 202.941C106.776 203.062 106.877 203.194 106.964 203.333C106.831 203.233 106.707 203.121 106.595 202.999L105.597 201.966L101.995 198.133L96.6983 192.408C95.5933 191.315 94.6158 190.108 93.7836 188.808C93.0545 187.296 92.7292 185.631 92.8378 183.966C93.027 177.299 92.8378 171.241 92.8378 166.866C92.8378 164.674 92.8378 162.899 92.9066 161.674C92.9066 161.066 92.9582 160.591 92.9754 160.266C92.9891 160.098 93.0238 159.933 93.0786 159.774Z" fill="#263238"/>
<path d="M79.9324 143.315C79.9324 143.365 79.0727 143.607 77.6282 144.365C75.5997 145.449 73.8392 146.947 72.4694 148.757C71.5185 149.993 70.7729 151.365 70.2597 152.824C69.9671 153.636 69.7541 154.473 69.6235 155.324C69.5031 156.199 69.4257 157.116 69.3655 158.057C69.2409 160.019 69.2409 161.987 69.3655 163.949C69.5031 165.982 69.7954 168.116 70.019 170.257C70.4919 174.591 70.939 178.716 71.3517 182.474C71.5842 185.8 72.0902 189.102 72.8649 192.349C73.4407 194.523 74.4483 196.566 75.8312 198.366C76.2185 198.85 76.6379 199.31 77.0865 199.741C77.2497 199.883 77.4047 200.033 77.5508 200.191C77.5508 200.191 77.4992 200.191 77.4046 200.108C77.3101 200.024 77.1811 199.941 77.0263 199.799C76.5456 199.396 76.1026 198.953 75.7022 198.474C74.2382 196.691 73.1698 194.635 72.564 192.433C71.7337 189.178 71.1901 185.86 70.939 182.516C70.5177 178.758 70.0792 174.632 69.5719 170.307C69.3483 168.141 69.0646 166.032 68.927 163.974C68.7978 161.995 68.7978 160.011 68.927 158.032C68.9958 157.082 69.0732 156.166 69.2108 155.266C69.3527 154.4 69.5772 153.549 69.8814 152.724C71.221 149.053 73.9547 146.016 77.525 144.232C78.0781 143.95 78.6531 143.711 79.2446 143.515C79.4691 143.434 79.6989 143.367 79.9324 143.315Z" fill="#263238"/>
<path d="M101.617 148.741C101.31 148.602 101.022 148.429 100.757 148.224L98.4272 146.691L98.6679 146.574C98.6679 147.724 98.6679 149.074 98.6679 150.566V150.874L98.367 150.732L93.5435 148.382C90.2505 146.766 87.2842 145.274 85.1433 144.216L82.5639 142.907C82.2619 142.754 81.9742 142.576 81.7041 142.374C82.0464 142.461 82.3758 142.589 82.6843 142.757L85.2637 143.949C87.4389 144.974 90.4224 146.449 93.7155 148.041L98.5303 150.424L98.2294 150.599C98.281 149.107 98.3326 147.757 98.367 146.607V146.316L98.6077 146.482L100.852 148.149C101.128 148.319 101.385 148.517 101.617 148.741Z" fill="#263238"/>
<path d="M108.383 334.01L101.316 348.351C101.316 348.351 114.883 360.402 113.86 363.185L82.959 350.41L92.967 327.576L108.383 334.01Z" fill="#263238"/>
<path d="M92.3046 343.168C91.9835 343.12 91.6554 343.191 91.386 343.367C91.1166 343.543 90.9257 343.812 90.8516 344.118C90.8132 344.437 90.9011 344.758 91.0974 345.016C91.2937 345.274 91.5838 345.451 91.9091 345.51C92.2507 345.56 92.5994 345.484 92.8849 345.295C93.1704 345.106 93.3717 344.82 93.4482 344.493C93.4493 344.155 93.3189 343.83 93.083 343.581C92.8471 343.332 92.5231 343.179 92.1757 343.152" fill="#E0E0E0"/>
<path d="M82.959 350.41L84.0681 348.151L113.301 361.276C113.301 361.276 114.428 362.393 113.877 363.218L82.959 350.41Z" fill="#455A64"/>
<path d="M101.883 348.41C101.814 348.551 101.023 348.301 100.094 348.41C99.1659 348.518 98.4953 348.968 98.3749 348.851C98.2545 348.735 98.8392 348.018 99.9827 347.893C101.126 347.768 101.969 348.301 101.883 348.41Z" fill="white"/>
<path d="M104.574 350.984C104.574 351.134 103.791 351.101 103.018 351.468C102.244 351.834 101.823 352.401 101.676 352.301C101.53 352.201 101.78 351.418 102.751 350.968C103.723 350.518 104.634 350.851 104.574 350.984Z" fill="white"/>
<path d="M104.866 355.301C104.72 355.301 104.814 354.468 105.537 353.901C106.259 353.335 107.102 353.293 107.119 353.435C107.136 353.576 106.517 353.801 105.924 354.268C105.33 354.735 104.986 355.351 104.866 355.301Z" fill="white"/>
<path d="M358.752 363.417C358.752 363.642 285.379 363.834 194.884 363.834C104.389 363.834 31 363.658 31 363.417C31 363.176 104.358 363 194.884 363C285.41 363 358.752 363.192 358.752 363.417Z" fill="#263238"/>
</svg>
